<svg width="36" height="36" viewBox="0 0 36 36" fill="none" xmlns="http://www.w3.org/2000/svg">
<path d="M18 36C27.9411 36 36 27.9411 36 18C36 8.05887 27.9411 0 18 0C8.05887 0 0 8.05887 0 18C0 27.9411 8.05887 36 18 36Z" fill="#F0FFFB"/>
<path d="M11.8115 9.00114C11.4474 9.01137 11.0621 9.09528 10.6785 9.25059C10.167 9.45769 9.68773 9.77474 9.27931 10.1656C8.87088 10.5565 8.53334 11.0212 8.30442 11.5229C7.84658 12.5261 7.89591 13.5632 8.5154 14.205C8.56115 14.2525 8.6239 14.2799 8.68985 14.2812C8.7558 14.2824 8.81954 14.2574 8.86704 14.2116L11.1023 12.0664L13.3436 9.92661C13.3913 9.88107 13.419 9.81843 13.4205 9.75248C13.4221 9.68653 13.3973 9.62268 13.3518 9.57497C12.9668 9.17167 12.4185 8.98403 11.8115 9.00106L11.8115 9.00114ZM23.3423 9.00114C23.2209 8.99773 23.1019 9.00245 22.986 9.01552C22.5225 9.06777 22.1097 9.25242 21.8017 9.57504C21.7562 9.62275 21.7314 9.6866 21.733 9.75255C21.7345 9.8185 21.7622 9.88114 21.8099 9.92669C21.8099 9.92669 23.3053 11.3527 24.0511 12.0665C24.797 12.7803 26.2868 14.2117 26.2868 14.2117C26.3857 14.3067 26.5429 14.3037 26.6381 14.2051C27.2576 13.5631 27.3073 12.5261 26.8495 11.5229C26.3916 10.5197 25.4984 9.66484 24.4753 9.25065C24.0917 9.09533 23.7065 9.01142 23.3423 9.00119L23.3423 9.00114ZM23.1943 9.49732C23.526 9.48533 23.8982 9.55325 24.2889 9.71142C25.1818 10.0729 25.9977 10.8543 26.3972 11.7297C26.7441 12.4897 26.715 13.1768 26.4175 13.6476C26.178 13.4175 25.0702 12.3534 24.395 11.7071C23.72 11.0611 22.6092 10.0022 22.3682 9.77251C22.5626 9.63823 22.7858 9.53661 23.0548 9.50752C23.1005 9.50258 23.1469 9.49914 23.1943 9.49742L23.1943 9.49732ZM11.9436 9.50548C12.2695 9.52026 12.5559 9.61378 12.7852 9.77202L10.7588 11.7066C10.7585 11.7068 10.7583 11.7069 10.758 11.707L8.73599 13.6479C8.43828 13.1771 8.40969 12.4897 8.75659 11.7296C8.95632 11.2919 9.26026 10.8776 9.62578 10.5278C9.99131 10.1779 10.4184 9.89255 10.8649 9.71179C11.2523 9.55492 11.6177 9.49069 11.9435 9.50547L11.9436 9.50548ZM17.5768 9.83459C12.8396 9.83459 8.9939 13.6799 8.9939 18.4171C8.9939 23.1543 12.8394 27 17.5768 27C22.314 27 26.1597 23.1545 26.1597 18.4171C26.1597 13.6797 22.3142 9.83459 17.5768 9.83459ZM17.5768 10.3319C22.0452 10.3319 25.6624 13.9487 25.6624 18.4171C25.6624 22.8855 22.0452 26.5026 17.5768 26.5026C13.1084 26.5026 9.49125 22.8855 9.49125 18.4171C9.49125 13.9487 13.1084 10.3319 17.5768 10.3319ZM22.5018 13.4302C22.4373 13.431 22.3755 13.4567 22.3297 13.5021L18.2416 17.4332C18.0454 17.3006 17.814 17.2298 17.5772 17.23C17.3448 17.2306 17.1176 17.2995 16.924 17.4281L13.6863 14.254C13.5881 14.1579 13.4306 14.1596 13.3344 14.2577C13.2383 14.3559 13.2399 14.5134 13.3381 14.6096L16.5767 17.7845C16.4572 17.9733 16.3935 18.192 16.3929 18.4155V18.4209C16.3958 19.0751 16.9281 19.6032 17.5823 19.601C18.2366 19.5989 18.7654 19.0671 18.7639 18.4128C18.763 18.1936 18.7014 17.9789 18.5859 17.7926L22.6743 13.8603C22.7491 13.7902 22.7732 13.6815 22.7351 13.5863C22.6969 13.4912 22.6043 13.4292 22.5018 13.4302H22.5018Z" fill="#42C6A5" stroke="#42C6A5" stroke-width="0.4"/>
</svg>
