<svg width="36" height="36" viewBox="0 0 36 36" fill="none" xmlns="http://www.w3.org/2000/svg">
<path d="M18 36C27.9411 36 36 27.9411 36 18C36 8.05887 27.9411 0 18 0C8.05887 0 0 8.05887 0 18C0 27.9411 8.05887 36 18 36Z" fill="#F0FFFB"/>
<path d="M27.8701 16.7892C27.8492 16.6634 27.8282 16.5585 27.7863 16.4537C27.7024 16.265 27.5766 16.0973 27.4089 15.9715L25.1444 14.1054V12.3232C25.1444 11.6313 24.5783 11.0652 23.8864 11.0652H21.4123L19.2318 9.28305C18.7705 8.90565 18.0996 8.90565 17.6383 9.28305L15.4578 11.0652H12.9837C12.2918 11.0652 11.7257 11.6313 11.7257 12.3232V14.1054L9.48224 15.9295C9.3145 16.0553 9.1887 16.2231 9.10483 16.4118V16.4327C9.04193 16.6005 9 16.7472 9 16.9359V25.763C9 26.0984 9.14677 26.4129 9.35644 26.6436C9.58707 26.8742 9.90157 27 10.237 27H26.5911C26.9266 27 27.2411 26.8532 27.4718 26.6436C27.7024 26.4129 27.8282 26.0984 27.8282 25.763V16.9359C27.8701 16.873 27.8701 16.8311 27.8701 16.7892ZM25.1444 15.1957L26.8218 16.5585L25.1444 18.1939V15.1957ZM18.1625 9.93302C18.2464 9.87012 18.3302 9.82819 18.4351 9.82819C18.5399 9.82819 18.6238 9.87012 18.7076 9.93302L20.0914 11.0652H16.7787L18.1625 9.93302ZM12.5644 12.3232C12.5644 12.0926 12.7531 11.9039 12.9837 11.9039H23.8864C24.1171 11.9039 24.3058 12.0926 24.3058 12.3232V19.0116L24.2638 19.0326L22.1252 21.1293H14.7449L12.6063 19.0326L12.5644 19.0116V12.3232ZM11.7257 15.1957V18.1939L10.0483 16.5585L11.7257 15.1957ZM9.83867 25.5952V17.523L13.9691 21.5486L9.83867 25.5952ZM10.4467 26.1613L14.7449 21.968H22.1252L26.4234 26.1613H10.4467ZM27.0315 25.5952L22.901 21.5486L27.0315 17.523V25.5952ZM18.4351 20.2906C18.9173 20.2906 19.3995 20.2068 19.8608 20.0181C20.0705 19.9342 20.1753 19.6826 20.0914 19.4729C20.0076 19.2632 19.756 19.1584 19.5463 19.2423C19.1899 19.3891 18.8334 19.452 18.456 19.452C17.9109 19.452 17.3867 19.3052 16.9464 19.0326C16.0868 18.5084 15.5207 17.5859 15.5207 16.5166C15.5207 14.9022 16.8416 13.5812 18.456 13.5812C20.0705 13.5812 21.3914 14.9022 21.3914 16.5166V16.7263C21.3914 17.0617 21.1188 17.3553 20.7624 17.3553C20.4059 17.3553 20.1334 17.0617 20.1334 16.7263V16.5166C20.1334 15.5941 19.3786 14.8393 18.456 14.8393C17.5335 14.8393 16.7787 15.5941 16.7787 16.5166C16.7787 17.4391 17.5335 18.1939 18.456 18.1939C18.9173 18.1939 19.3576 18.0052 19.6511 17.6907C19.9237 18.0052 20.3221 18.1939 20.7624 18.1939C21.5801 18.1939 22.2301 17.544 22.2301 16.7263V16.5166C22.2301 14.4409 20.5317 12.7426 18.456 12.7426C16.3803 12.7426 14.682 14.4409 14.682 16.5166C14.682 17.4811 15.0594 18.3617 15.6465 19.0326C16.3174 19.8084 17.3238 20.2906 18.4351 20.2906ZM18.4351 17.3553C17.9738 17.3553 17.5964 16.9779 17.5964 16.5166C17.5964 16.0553 17.9738 15.6779 18.4351 15.6779C18.8963 15.6779 19.2737 16.0553 19.2737 16.5166C19.2737 16.9779 18.8963 17.3553 18.4351 17.3553Z" fill="#42C6A5"/>
</svg>
