<svg width="1830" height="466" viewBox="0 0 1830 466" fill="none" xmlns="http://www.w3.org/2000/svg">
<path d="M650.1 1.3C648.6 3.2 630.9 12.3 621.8 15.9C612.2 19.7 594 24.4 579 26.9C555 31 541.3 32.1 504.5 33C468 33.9 447.4 35.2 443.5 37C442.4 37.4 438.3 38.1 434.5 38.4C430.6 38.7 424 39.8 419.9 40.9C410.2 43.4 391 50.5 384 54.3C366.9 63.5 350.7 77.5 341 91.6C338.1 95.9 335.3 99.7 334.9 100C332.1 102.1 317.8 135.9 314.5 148.2C311.1 161 306.7 183.3 304.6 199C304.4 200.4 304 202.8 303.7 204.5C303.3 206.1 302.6 213.3 302 220.5C301.4 227.6 300.8 233.6 300.6 233.7C300.4 233.9 300 230.2 299.6 225.6C298.8 214.9 294.5 189.2 292.3 182C291.4 179 290.6 176.3 290.5 176C286.5 161 278.3 140.5 270.7 127C254.5 97.9 230.5 75.1 205.1 64.5C200.9 62.8 196.6 61 195.5 60.5C194.4 60 193.3 59.6 193 59.5C192.7 59.4 191.8 59 191 58.7C187.7 57.3 173 54.1 165 52.9C152.5 51.1 121.9 51.4 107.5 53.4C96.3 55 78.8 59.1 75.1 61C74.2 61.4 69.7 63.3 65 65C42.7 73.4 19.2 92 5.3 112.2L0 119.8V176.9C0 236 0 236.1 3.9 232.6C6.9 229.9 24.8 221 33.1 217.9C40.3 215.3 56.3 210.5 61 209.5C61.8 209.3 64.6 208.7 67.2 208.1C82.1 204.7 112.2 202 135.8 202C190.7 202 236.8 214 266 235.7C272.2 240.4 282.6 250.6 286.3 255.7C288 258.1 289.6 260 290 260C290.4 260 292.9 264.5 295.6 270C298.3 275.5 300.8 280 301.2 280C301.5 280 302.1 278.8 302.5 277.2C302.8 275.7 305.7 269.8 308.9 264.1C328.3 229.3 366.4 205.7 419.5 195.4C421.7 195 424.2 194.5 425 194.3C432 192.5 452.6 190.9 479 190C531.4 188.4 548.6 185.4 578.9 172.6C585.4 169.8 586.7 169.1 595.5 163.4C609.2 154.6 622.7 141 630.2 128.5C647 100.6 654 69.4 654 22.8C654 4.1 653.8 -4.17233e-06 652.6 -4.17233e-06C651.9 -4.17233e-06 650.8 0.599996 650.1 1.3Z" fill="#E94F11"/>
<path d="M0 393.5V466H302H604V395.1C604 356.1 603.7 323.5 603.4 322.6C602.8 321.1 575.3 321 301.4 321H0V393.5Z" fill="#E94F11"/>
<path d="M752 245.497H784.119V198.779H808.938L840.64 245.497H878.181L842.517 193.356C861.079 186.474 873.801 171.666 873.801 148.098C873.801 133.916 869.421 122.445 861.287 114.311C851.693 104.717 837.302 99.5029 818.74 99.5029H752V245.497ZM784.119 170.414V128.493H816.029C831.671 128.493 841.265 135.584 841.265 149.35C841.265 162.072 832.297 170.414 816.655 170.414H784.119Z" fill="#1D1D1B"/>
<path d="M899.836 245.497H1011V216.924H931.746V186.265H1000.57V157.692H931.746V128.076H1009.96V99.5029H899.836V245.497Z" fill="#1D1D1B"/>
<path d="M1108.25 248C1134.95 248 1155.6 237.572 1170.61 224.849V161.446H1107.21V189.185H1139.54V210.041C1131.4 215.881 1120.97 218.801 1109.29 218.801C1083.43 218.801 1065.08 199.196 1065.08 172.5C1065.08 147.264 1083.64 126.616 1107 126.616C1123.89 126.616 1133.9 132.039 1145.17 141.424L1165.4 117.022C1150.17 104.091 1134.32 97 1108.04 97C1063.83 97 1031.5 130.996 1031.5 172.5C1031.5 216.09 1062.78 248 1108.25 248Z" fill="#1D1D1B"/>
<path d="M1198.38 245.497H1230.5V99.5029H1198.38V245.497Z" fill="#1D1D1B"/>
<path d="M1315.94 247.583C1347.44 247.583 1369.54 231.315 1369.54 202.325C1369.54 176.463 1352.86 165.826 1323.24 158.109C1298.01 151.644 1291.75 148.515 1291.75 138.921C1291.75 131.413 1298.22 125.782 1310.52 125.782C1322.83 125.782 1335.55 131.205 1348.48 140.173L1365.16 115.979C1350.36 104.091 1332.21 97.4173 1310.94 97.4173C1281.11 97.4173 1259.84 114.937 1259.84 141.424C1259.84 170.832 1278.82 178.966 1308.23 186.474C1332.63 192.731 1337.63 196.902 1337.63 205.036C1337.63 214.004 1329.71 219.218 1316.57 219.218C1299.88 219.218 1286.12 212.336 1272.98 201.49L1254 224.224C1271.52 239.866 1293.84 247.583 1315.94 247.583Z" fill="#1D1D1B"/>
<path d="M1428.88 245.497H1461V129.119H1505.42V99.5029H1384.46V129.119H1428.88V245.497Z" fill="#1D1D1B"/>
<path d="M1596.78 248C1641.83 248 1674.58 214.004 1674.58 172.5C1674.58 130.579 1642.25 97.0001 1597.2 97.0001C1552.15 97.0001 1519.41 130.996 1519.41 172.5C1519.41 214.421 1551.73 248 1596.78 248ZM1597.2 218.384C1571.34 218.384 1552.99 197.528 1552.99 172.5C1552.99 147.055 1570.92 126.616 1596.78 126.616C1622.65 126.616 1641 147.473 1641 172.5C1641 197.945 1623.06 218.384 1597.2 218.384Z" fill="#1D1D1B"/>
<path d="M1700.27 245.497H1731.98V152.687L1802.68 245.497H1830V99.5029H1798.3V189.394L1729.89 99.5029H1700.27V245.497Z" fill="#1D1D1B"/>
<path d="M777.829 380.297C801.176 380.297 818.145 362.679 818.145 341.17C818.145 319.444 801.392 302.042 778.045 302.042C754.698 302.042 737.729 319.66 737.729 341.17C737.729 362.895 754.482 380.297 777.829 380.297ZM778.045 364.949C764.642 364.949 755.131 354.14 755.131 341.17C755.131 327.983 764.426 317.39 777.829 317.39C791.232 317.39 800.743 328.199 800.743 341.17C800.743 354.356 791.448 364.949 778.045 364.949Z" fill="#1D1D1B"/>
<path d="M829.993 337.603H847.503V320.309H840.802C840.261 314.148 843.936 310.365 851.394 309.608L849.989 302.799C837.127 303.015 829.993 308.743 829.993 323.011V337.603Z" fill="#1D1D1B"/>
<path d="M931.393 381.27L941.985 369.488L934.203 362.895C938.527 356.626 940.905 349.06 940.905 341.17C940.905 319.444 924.151 302.042 900.804 302.042C877.457 302.042 860.488 319.66 860.488 341.17C860.488 362.895 877.241 380.297 900.588 380.297C909.019 380.297 916.693 377.919 923.07 373.812L931.393 381.27ZM900.804 364.949C887.401 364.949 877.89 354.14 877.89 341.17C877.89 327.983 887.185 317.39 900.588 317.39C913.991 317.39 923.503 328.199 923.503 341.17C923.503 345.169 922.854 348.628 921.449 351.762L909.019 340.521L898.426 352.411L910.748 362.895C907.83 364.192 904.479 364.949 900.804 364.949Z" fill="#1D1D1B"/>
<path d="M987.232 380.189C1007.55 380.189 1020.41 368.948 1020.41 346.033V303.339H1003.77V346.682C1003.77 358.68 997.608 364.841 987.448 364.841C977.288 364.841 971.127 358.463 971.127 346.142V303.339H954.481V346.574C954.481 368.84 966.911 380.189 987.232 380.189Z" fill="#1D1D1B"/>
<path d="M1061.47 379.54H1076.17L1106.76 303.339H1088.82L1069.04 356.626L1049.26 303.339H1030.88L1061.47 379.54Z" fill="#1D1D1B"/>
<path d="M1150.84 379H1167.16V329.928L1188.24 361.922H1188.67L1209.96 329.604V379H1226.5V303.339H1208.56L1188.67 335.333L1168.78 303.339H1150.84V379Z" fill="#1D1D1B"/>
<path d="M1238.19 379H1255.16L1262.08 362.03H1294.07L1300.99 379H1318.39L1285.97 302.799H1270.62L1238.19 379ZM1268.02 347.33L1278.08 322.795L1288.13 347.33H1268.02Z" fill="#1D1D1B"/>
<path d="M1330.07 379H1346.72V354.789H1359.58L1376.01 379H1395.46L1376.98 351.978C1386.6 348.411 1393.19 340.737 1393.19 328.523C1393.19 321.173 1390.92 315.229 1386.71 311.013C1381.74 306.041 1374.28 303.339 1364.66 303.339H1330.07V379ZM1346.72 340.089V318.363H1363.25C1371.36 318.363 1376.33 322.038 1376.33 329.172C1376.33 335.765 1371.68 340.089 1363.58 340.089H1346.72Z" fill="#1D1D1B"/>
<path d="M1408.18 379H1424.82V355.869L1433.58 346.79L1457.03 379H1477.03L1444.82 335.441L1475.63 303.339H1455.52L1424.82 336.414V303.339H1408.18V379Z" fill="#1D1D1B"/>
<path d="M1478.54 379H1495.51L1502.42 362.03H1534.42L1541.34 379H1558.74L1526.31 302.799H1510.96L1478.54 379ZM1508.37 347.33L1518.42 322.795L1528.47 347.33H1508.37Z" fill="#1D1D1B"/>
<path d="M1568.15 379H1631.16V364.408H1589.55L1631.16 315.985V303.339H1569.44V317.931H1609.76L1568.15 366.354V379Z" fill="#1D1D1B"/>
<path d="M1647.7 379H1664.34V303.339H1647.7V379Z" fill="#1D1D1B"/>
</svg>
