<svg width="36" height="36" viewBox="0 0 36 36" fill="none" xmlns="http://www.w3.org/2000/svg">
<path d="M18 36C27.9411 36 36 27.9411 36 18C36 8.05887 27.9411 0 18 0C8.05887 0 0 8.05887 0 18C0 27.9411 8.05887 36 18 36Z" fill="#F0FFFB"/>
<path d="M18.4294 19.0379C26.5152 19.0379 26.8477 24.0841 26.8603 24.4343L26.8608 24.453C26.8608 25.8577 25.7174 27 24.3137 27H12.546C11.1423 27 10 25.8577 10 24.453L10.0005 24.4343C10.0131 24.0841 10.3455 19.0379 18.4294 19.0379ZM18.4294 20.5815C11.7011 20.5815 11.5467 24.3027 11.5436 24.4612C11.5436 25.0066 11.9934 25.4564 12.546 25.4564H24.3137C24.8664 25.4564 25.3171 25.0066 25.3171 24.453C25.314 24.3027 25.1586 20.5815 18.4294 20.5815ZM18.4296 9C21.0929 9 23.2591 11.1663 23.2591 13.8296C23.2591 16.4939 21.0929 18.6602 18.4296 18.6602C15.7663 18.6602 13.6 16.4939 13.6 13.8296C13.6 11.1663 15.7663 9 18.4296 9ZM18.4296 10.5436C16.6173 10.5436 15.1436 12.0183 15.1436 13.8296C15.1436 15.6428 16.6173 17.1165 18.4296 17.1165C20.2418 17.1165 21.7155 15.6428 21.7155 13.8296C21.7155 12.0183 20.2418 10.5436 18.4296 10.5436Z" fill="#42C6A5" stroke="#E8FFF9" stroke-width="0.4"/>
</svg>
