<svg width="18" height="18" viewBox="0 0 18 18" fill="none" xmlns="http://www.w3.org/2000/svg">
<path d="M9 18C13.9706 18 18 13.9706 18 9C18 4.02944 13.9706 0 9 0C4.02944 0 0 4.02944 0 9C0 13.9706 4.02944 18 9 18Z" fill="#9E61C9"/>
<path d="M12.2402 7.81714C12.8366 7.81714 13.3202 7.3336 13.3202 6.73714C13.3202 6.14067 12.8366 5.65714 12.2402 5.65714C11.6437 5.65714 11.1602 6.14067 11.1602 6.73714C11.1602 7.3336 11.6437 7.81714 12.2402 7.81714Z" fill="white"/>
<path d="M5.76018 7.81714C6.35664 7.81714 6.84018 7.3336 6.84018 6.73714C6.84018 6.14067 6.35664 5.65714 5.76018 5.65714C5.16371 5.65714 4.68018 6.14067 4.68018 6.73714C4.68018 7.3336 5.16371 7.81714 5.76018 7.81714Z" fill="white"/>
<path d="M5.04004 11.5971H12.96" stroke="white" stroke-width="1.4" stroke-linecap="round" stroke-linejoin="round"/>
</svg>
