<svg width="24" height="27" viewBox="0 0 24 27" fill="none" xmlns="http://www.w3.org/2000/svg">
<path d="M12.004 1C10.8228 1.0378 9.87408 1.98655 9.83627 3.16776V3.83713C6.10462 4.77463 3.50018 8.14536 3.53466 11.9928V18.807L1.08123 21.2492C1.0288 21.302 0.999579 21.3736 1 21.448V22.7056C1 22.8602 1.1254 22.9856 1.28008 22.9856H9.20331V23.1201C9.20331 24.6669 10.4572 25.9208 12.004 25.9208C13.5508 25.9208 14.8047 24.6669 14.8047 23.1201V22.9856H22.7196C22.8743 22.9856 22.9998 22.8602 22.9998 22.7056V21.448C23.0023 21.3748 22.9762 21.3034 22.9268 21.2492L20.4846 18.807V11.9956C20.5191 8.14816 17.9146 4.77743 14.183 3.83993V3.16776C14.1449 1.98236 13.1896 1.032 12.004 1ZM14.2446 23.1257C14.2446 24.3631 13.2415 25.3662 12.004 25.3662C10.7666 25.3662 9.76346 24.3631 9.76346 23.1257V22.9856H14.2446V23.1257ZM19.9133 11.9956V18.9218C19.9128 18.9962 19.9421 19.0678 19.9945 19.1206L22.4367 21.5629V22.4255H1.56855V21.5629L4.01078 19.1206C4.06321 19.0678 4.09243 18.9962 4.092 18.9218V11.9956C4.06027 8.32382 6.59733 5.12858 10.1808 4.32725C10.3099 4.29678 10.4 4.17984 10.3964 4.04718V3.16776C10.3964 2.27912 11.1168 1.55874 12.0054 1.55874C12.8941 1.55874 13.6144 2.27912 13.6144 3.16776V4.05558C13.6109 4.18824 13.7009 4.30518 13.8301 4.33565C17.4082 5.13859 19.9416 8.32864 19.9133 11.9956Z" fill="black" stroke="black"/>
<path d="M18.1331 11.8837C20.4164 11.8837 22.2673 10.0327 22.2673 7.74939C22.2673 5.46609 20.4164 3.61511 18.1331 3.61511C15.8498 3.61511 13.9988 5.46609 13.9988 7.74939C13.9988 10.0327 15.8498 11.8837 18.1331 11.8837Z" fill="#FC2626" stroke="white"/>
</svg>
