<svg width="16" height="12" viewBox="0 0 16 12" fill="none" xmlns="http://www.w3.org/2000/svg">
<path fill-rule="evenodd" clip-rule="evenodd" d="M16 2.58723C16 2.83863 15.9073 3.05233 15.7218 3.22831L8.52851 10.0539L7.17729 11.3361C6.99183 11.512 6.76662 11.6 6.50168 11.6C6.23673 11.6 6.01153 11.512 5.82606 11.3361L4.47484 10.0539L0.878192 6.6411C0.69273 6.46512 0.599998 6.25143 0.599998 6.00002C0.599998 5.74862 0.69273 5.53493 0.878192 5.35895L2.22942 4.07679C2.41488 3.90081 2.64008 3.81282 2.90503 3.81282C3.16998 3.81282 3.39518 3.90081 3.58064 4.07679L6.50168 6.85794L13.0194 0.663997C13.2048 0.488015 13.43 0.400024 13.695 0.400024C13.9599 0.400024 14.1851 0.488015 14.3706 0.663997L15.7218 1.94615C15.9073 2.12213 16 2.33583 16 2.58723Z" fill="#42C6A5"/>
</svg>
