<svg width="36" height="36" viewBox="0 0 36 36" fill="none" xmlns="http://www.w3.org/2000/svg">
<path d="M18 36C27.9411 36 36 27.9411 36 18C36 8.05887 27.9411 0 18 0C8.05887 0 0 8.05887 0 18C0 27.9411 8.05887 36 18 36Z" fill="#F0FFFB"/>
<path d="M21.8175 25.5C21.3324 25.5 20.6534 25.403 19.8773 25.112C18.6161 24.7239 17.646 24.1419 16.5789 23.4628C15.4148 22.6867 14.2507 21.5226 14.2507 21.5226L13.9596 21.2315H13.8626C13.6686 21.0375 12.6985 19.9704 11.9224 18.9033C11.2433 17.7392 10.7583 16.769 10.3702 15.5079C9.88519 14.1498 9.9822 13.1797 10.0792 12.6946C10.1762 12.3066 10.4673 11.9185 10.7583 11.6275L11.9224 10.4634C12.4075 9.9783 13.3776 9.68727 14.2507 10.5604L16.1909 12.5006C16.5789 12.8886 16.967 13.8587 16.1909 14.7318L15.0268 15.896C15.1238 16.09 15.3178 16.478 15.5118 16.769C15.7058 17.0601 16.2879 17.8362 16.6759 18.2242C16.7729 18.3212 16.87 18.4182 17.064 18.6122L17.258 18.7093C17.646 19.0973 18.4221 19.6794 18.7132 19.8734C19.0042 20.0674 19.2952 20.2614 19.5862 20.3584L20.7504 19.1943C21.7205 18.4182 22.5936 18.8063 23.0786 19.1943L25.0188 21.1345C25.8919 22.0076 25.5039 22.9777 25.1159 23.4628L23.9517 24.6269C23.6607 24.9179 23.2727 25.209 22.7876 25.306C22.4966 25.403 22.2055 25.5 21.8175 25.5ZM14.9297 20.8435C14.9297 20.8435 16.0939 21.9106 17.161 22.6867C18.2281 23.3658 19.1012 23.8508 20.2653 24.2389C21.4294 24.6269 22.2055 24.5299 22.4966 24.4329C22.7876 24.3359 23.0786 24.1419 23.1756 23.9478L24.3398 22.7837C24.4368 22.6867 24.7278 22.2986 24.2428 21.8136L22.3025 19.8734C22.2055 19.7764 21.8175 19.4853 21.3324 19.8734L20.0713 21.1345C19.8773 21.3285 19.5862 21.4256 19.1982 21.3285C19.0042 21.2315 18.4221 21.0375 18.0341 20.7465C17.646 20.4554 16.967 19.8734 16.4819 19.4853L16.3849 19.3883C16.0939 19.0973 15.8998 18.9033 15.8998 18.9033C15.5118 18.5152 14.9297 17.7392 14.6387 17.3511C14.3477 16.9631 14.1537 16.381 14.0566 16.187C13.8626 15.8959 14.0566 15.5079 14.1537 15.3139L15.4148 14.0527C15.8028 13.5677 15.5118 13.2767 15.4148 13.1797L13.4746 11.2394C13.0865 10.8514 12.6985 11.0454 12.5045 11.1424L11.5344 12.3066C11.4374 12.4036 11.1463 12.6946 11.0493 12.9856C10.9523 13.3737 10.8553 14.1498 11.2433 15.2169C11.6314 16.381 12.1164 17.2541 12.7955 18.3212C13.4746 19.2913 14.4447 20.3584 14.6387 20.5525L14.9297 20.8435Z" fill="#42C6A5"/>
</svg>
