<svg width="18" height="18" viewBox="0 0 18 18" fill="none" xmlns="http://www.w3.org/2000/svg">
<path d="M9 18C13.9706 18 18 13.9706 18 9C18 4.02944 13.9706 0 9 0C4.02944 0 0 4.02944 0 9C0 13.9706 4.02944 18 9 18Z" fill="#D86041"/>
<path d="M12.2402 7.55999C12.8366 7.55999 13.3202 7.07646 13.3202 6.47999C13.3202 5.88353 12.8366 5.39999 12.2402 5.39999C11.6437 5.39999 11.1602 5.88353 11.1602 6.47999C11.1602 7.07646 11.6437 7.55999 12.2402 7.55999Z" fill="white"/>
<path d="M5.76018 7.55999C6.35664 7.55999 6.84018 7.07646 6.84018 6.47999C6.84018 5.88353 6.35664 5.39999 5.76018 5.39999C5.16371 5.39999 4.68018 5.88353 4.68018 6.47999C4.68018 7.07646 5.16371 7.55999 5.76018 7.55999Z" fill="white"/>
<path fill-rule="evenodd" clip-rule="evenodd" d="M8.99982 10.44C10.8996 10.44 12.5805 11.4299 13.5839 12.9308C13.6964 13.098 13.711 13.3125 13.6221 13.4933C13.5422 13.656 13.3894 13.7691 13.2131 13.7996L13.1536 13.8066L13.087 13.807C12.9107 13.7976 12.7475 13.7056 12.6484 13.5565C11.838 12.3442 10.5094 11.5626 8.99982 11.5626C7.4902 11.5626 6.16166 12.3442 5.35126 13.5565C5.26456 13.687 5.12874 13.7737 4.97808 13.7997L4.91269 13.807L4.8461 13.8066C4.64507 13.7936 4.46636 13.6741 4.37751 13.4933C4.28866 13.3125 4.30324 13.098 4.41573 12.9308C5.41911 11.4299 7.10005 10.44 8.99982 10.44Z" fill="white"/>
</svg>
