<svg width="18" height="18" viewBox="0 0 18 18" fill="none" xmlns="http://www.w3.org/2000/svg">
<path d="M9 18C13.9706 18 18 13.9706 18 9C18 4.02944 13.9706 0 9 0C4.02944 0 0 4.02944 0 9C0 13.9706 4.02944 18 9 18Z" fill="#5C97CC"/>
<path d="M12.2402 7.55999C12.8366 7.55999 13.3202 7.07646 13.3202 6.47999C13.3202 5.88353 12.8366 5.39999 12.2402 5.39999C11.6437 5.39999 11.1602 5.88353 11.1602 6.47999C11.1602 7.07646 11.6437 7.55999 12.2402 7.55999Z" fill="white"/>
<path d="M5.76018 7.55999C6.35664 7.55999 6.84018 7.07646 6.84018 6.47999C6.84018 5.88353 6.35664 5.39999 5.76018 5.39999C5.16371 5.39999 4.68018 5.88353 4.68018 6.47999C4.68018 7.07646 5.16371 7.55999 5.76018 7.55999Z" fill="white"/>
<path fill-rule="evenodd" clip-rule="evenodd" d="M8.99982 13.807C10.8996 13.807 12.5805 12.8171 13.5839 11.3162C13.6964 11.149 13.711 10.9345 13.6221 10.7537C13.5422 10.591 13.3894 10.478 13.2131 10.4475L13.1536 10.4404L13.087 10.44C12.9107 10.4494 12.7475 10.5414 12.6484 10.6905C11.838 11.9028 10.5094 12.6844 8.99982 12.6844C7.4902 12.6844 6.16166 11.9028 5.35126 10.6905C5.26456 10.56 5.12874 10.4733 4.97808 10.4474L4.91269 10.44L4.8461 10.4404C4.64507 10.4534 4.46636 10.573 4.37751 10.7537C4.28866 10.9345 4.30324 11.149 4.41573 11.3162C5.41911 12.8171 7.10005 13.807 8.99982 13.807Z" fill="white"/>
</svg>
