<svg width="18" height="18" viewBox="0 0 18 18" fill="none" xmlns="http://www.w3.org/2000/svg">
<path d="M9 18C13.9706 18 18 13.9706 18 9C18 4.02944 13.9706 0 9 0C4.02944 0 0 4.02944 0 9C0 13.9706 4.02944 18 9 18Z" fill="#FBB344"/>
<path d="M7.47368 5.78138C7.46212 5.74575 7.43146 5.71969 7.39443 5.71403L6.29134 5.55316L5.79805 4.55507C5.78133 4.52134 5.74694 4.5 5.70929 4.5C5.67165 4.5 5.63725 4.52134 5.62054 4.55507L5.12724 5.55316L4.02455 5.71165C3.98611 5.71634 3.95394 5.743 3.94218 5.77989C3.93042 5.81679 3.94124 5.85714 3.96987 5.88321L4.76786 6.66259L4.57966 7.75894C4.57317 7.79616 4.58842 7.83383 4.61898 7.85605C4.64954 7.87828 4.69007 7.88118 4.72349 7.86354L5.70929 7.34489L6.69549 7.86315C6.72891 7.88079 6.76944 7.87788 6.8 7.85566C6.83056 7.83343 6.84581 7.79577 6.83932 7.75854L6.65072 6.66259L7.44872 5.88321C7.47579 5.85682 7.48548 5.81731 7.47368 5.78138Z" fill="white"/>
<path d="M14.2237 5.78138C14.2121 5.74575 14.1815 5.71969 14.1444 5.71403L13.0413 5.55316L12.548 4.55507C12.5313 4.52134 12.4969 4.5 12.4593 4.5C12.4216 4.5 12.3873 4.52134 12.3705 4.55507L11.8772 5.55316L10.7745 5.71165C10.7361 5.71634 10.7039 5.743 10.6922 5.77989C10.6804 5.81679 10.6912 5.85714 10.7199 5.88321L11.5179 6.66259L11.3297 7.75894C11.3232 7.79616 11.3384 7.83383 11.369 7.85605C11.3995 7.87828 11.4401 7.88118 11.4735 7.86354L12.4593 7.34489L13.4455 7.86315C13.4789 7.88079 13.5194 7.87788 13.55 7.85566C13.5806 7.83343 13.5958 7.79577 13.5893 7.75854L13.4007 6.66259L14.1987 5.88321C14.2258 5.85682 14.2355 5.81731 14.2237 5.78138Z" fill="white"/>
<path fill-rule="evenodd" clip-rule="evenodd" d="M9.18 14.0545C11.0798 14.0545 12.7607 13.0646 13.7641 11.5637C13.8766 11.3965 13.8912 11.182 13.8023 11.0012C13.7224 10.8385 13.5696 10.7255 13.3933 10.6949L13.3337 10.6879L13.2671 10.6875C13.0909 10.6969 12.9276 10.7889 12.8286 10.938C12.0182 12.1503 10.6896 12.9319 9.18 12.9319C7.67037 12.9319 6.34183 12.1503 5.53144 10.938C5.44474 10.8075 5.30892 10.7208 5.15825 10.6949L5.09287 10.6875L5.02627 10.6879C4.82525 10.7009 4.64653 10.8204 4.55769 11.0012C4.46884 11.182 4.48342 11.3965 4.59591 11.5637C5.59928 13.0646 7.28022 14.0545 9.18 14.0545Z" fill="white"/>
</svg>
